<svg width="439" height="436" viewBox="0 0 439 436" fill="none" xmlns="http://www.w3.org/2000/svg">
<path d="M427.5 218C427.5 331.973 334.45 424.5 219.5 424.5C104.55 424.5 11.5 331.973 11.5 218C11.5 104.027 104.55 11.5 219.5 11.5C334.45 11.5 427.5 104.027 427.5 218Z" stroke="black" stroke-width="23"/>
<path d="M181.88 349.008C180.92 349.008 180.008 348.72 179.144 348.144C178.376 347.568 177.848 346.8 177.56 345.84L165.752 311.568L129.896 319.488L119.384 345.984C119.096 346.848 118.568 347.52 117.8 348C117.032 348.576 116.168 348.864 115.208 348.864C113.96 348.864 112.904 348.432 112.04 347.568C111.272 346.704 110.888 345.6 110.888 344.256C110.888 343.68 111.08 342.864 111.464 341.808L119.384 321.504C118.52 321.792 117.656 321.936 116.792 321.936C115.64 321.84 114.68 321.408 113.912 320.64C113.144 319.776 112.76 318.72 112.76 317.472C112.76 316.416 113.096 315.456 113.768 314.592C114.44 313.728 115.256 313.2 116.216 313.008L123.416 311.424L146.456 252.528C146.84 251.664 147.464 250.992 148.328 250.512C149.192 249.936 150.056 249.648 150.92 249.648C151.88 249.648 152.744 249.936 153.512 250.512C154.28 250.992 154.856 251.712 155.24 252.672L185.624 341.088C186.2 342.816 186.488 343.968 186.488 344.544C186.488 345.696 186.056 346.752 185.192 347.712C184.328 348.576 183.224 349.008 181.88 349.008ZM162.584 302.928L150.344 267.072L133.784 309.12L162.584 302.928ZM196.989 317.184C195.837 317.184 194.781 316.752 193.821 315.888C192.957 315.024 192.525 314.016 192.525 312.864C192.525 311.712 192.957 310.704 193.821 309.84C194.781 308.976 195.837 308.544 196.989 308.544H231.981C233.229 308.544 234.237 308.976 235.005 309.84C235.869 310.608 236.301 311.616 236.301 312.864C236.301 314.016 235.869 315.024 235.005 315.888C234.237 316.752 233.229 317.184 231.981 317.184H196.989ZM318.568 349.008C317.608 349.008 316.696 348.72 315.832 348.144C315.064 347.568 314.536 346.8 314.248 345.84L302.44 311.568L266.584 319.488L256.072 345.984C255.784 346.848 255.256 347.52 254.488 348C253.72 348.576 252.856 348.864 251.896 348.864C250.648 348.864 249.592 348.432 248.728 347.568C247.96 346.704 247.576 345.6 247.576 344.256C247.576 343.68 247.768 342.864 248.152 341.808L256.072 321.504C255.208 321.792 254.344 321.936 253.48 321.936C252.328 321.84 251.368 321.408 250.6 320.64C249.832 319.776 249.448 318.72 249.448 317.472C249.448 316.416 249.784 315.456 250.456 314.592C251.128 313.728 251.944 313.2 252.904 313.008L260.104 311.424L283.144 252.528C283.528 251.664 284.152 250.992 285.016 250.512C285.88 249.936 286.744 249.648 287.608 249.648C288.568 249.648 289.432 249.936 290.2 250.512C290.968 250.992 291.544 251.712 291.928 252.672L322.312 341.088C322.888 342.816 323.176 343.968 323.176 344.544C323.176 345.696 322.744 346.752 321.88 347.712C321.016 348.576 319.912 349.008 318.568 349.008ZM299.272 302.928L287.032 267.072L270.472 309.12L299.272 302.928ZM285.592 245.04C281.176 245.04 277.384 243.648 274.216 240.864C271.144 238.08 269.608 234.672 269.608 230.64C269.608 227.568 270.52 224.784 272.344 222.288C274.168 219.792 276.52 217.872 279.4 216.528C282.28 215.088 285.304 214.368 288.472 214.368C292.792 214.368 296.488 215.76 299.56 218.544C302.728 221.328 304.312 224.736 304.312 228.768C304.312 231.84 303.4 234.624 301.576 237.12C299.752 239.616 297.4 241.584 294.52 243.024C291.64 244.368 288.664 245.04 285.592 245.04ZM286.023 237.12C289.288 237.12 291.88 236.304 293.8 234.672C295.72 233.04 296.68 231.168 296.68 229.056C296.68 227.136 295.864 225.552 294.232 224.304C292.6 223.056 290.488 222.432 287.896 222.432C284.632 222.432 282.04 223.248 280.12 224.88C278.2 226.512 277.24 228.384 277.24 230.496C277.24 232.416 278.056 234 279.688 235.248C281.32 236.496 283.432 237.12 286.023 237.12Z" fill="black"/>
<path d="M297.049 88.9231C293.545 87.4462 289.893 86.2154 286.091 85.1692V159.2C277.593 156.677 268.871 155.385 260 155.385C245.836 155.385 231.822 158.708 219 165.108V90.6462C206.924 84.9231 192.984 81.5385 178 81.5385C164.656 81.5385 152.058 84.2462 140.951 88.9231C138.491 89.9077 137 92.0615 137 94.3385V168.677C137 172.246 140.504 174.769 144.455 174.769C145.647 174.769 146.84 174.523 148.033 174.031C157.053 170.154 167.191 167.692 178 167.692C193.431 167.692 207.669 172.738 219 180C230.331 172.738 244.569 167.692 260 167.692C270.809 167.692 280.947 170.154 289.967 174.092C291.16 174.585 292.353 174.831 293.545 174.831C297.422 174.831 301 172.308 301 168.738V94.3385C301 92.0615 299.509 89.9077 297.049 88.9231ZM204.091 159.2C195.593 156.677 186.871 155.385 178 155.385C169.129 155.385 160.407 156.677 151.909 159.2V98.2154C160.184 95.3231 168.905 93.8462 178 93.8462C186.945 93.8462 195.816 95.3846 204.091 98.2769V159.2ZM271.182 60L233.909 90.7692V149.231L271.182 121.538V60Z" fill="black"/>
</svg>
